# xmcd
#
# Track frame offsets:
#	150
#	13345
#	24532
#	36907
#	50457
#	60005
#	72257
#	83630
#	94845
#	105812
#	119007
#	129982
#	147657
#	162360
#	178967
#	190972
#
# Disc length: 2776 seconds
#
# Revision: 2
# Processed by: cddbd v1.4PL0 Copyright (c) Steve Scherf et al.
# Submitted via: EasyCDDAExtractor 4.6.9.1
#
DISCID=db0ad610
DTITLE=Booker T. and The MG's - The Very Best Of Booker T. and The MG's
DYEAR=1994
DGENRE=Blues
TTITLE0=Green Onions
TTITLE1=Chinese Checkers
TTITLE2=Groovin'
TTITLE3=Soul Dressing
TTITLE4=Boot-Leg
TTITLE5=My Sweet Potato
TTITLE6=Slim Jenkin's Place
TTITLE7=Booker-Loo
TTITLE8=Hip Hug-Her
TTITLE9=Mo' Onions
TTITLE10=Soul-Limbo
TTITLE11=Hang 'Em High
TTITLE12=Time Is Tight
TTITLE13=Mrs. Robinson
TTITLE14=Slum Baby
TTITLE15=Melting Pot
EXTD=
EXTT0=
EXTT1=
EXTT2=
EXTT3=
EXTT4=
EXTT5=
EXTT6=
EXTT7=
EXTT8=
EXTT9=
EXTT10=
EXTT11=
EXTT12=
EXTT13=
EXTT14=
EXTT15=
PLAYORDER=
